# xmcd
#
# Track frame offsets: 
#        150
#        28772
#        44964
#        64560
#        82433
#        93015
#        117698
#        134955
#        151324
#        176150
#        199179
#        222074
#        238642
#        259310
#
# Disc length: 3670 seconds
#
# Revision: 0
# Processed by: cddbd v1.5.2PL0 Copyright (c) Steve Scherf et al.
# Submitted via: ExactAudioCopy v0.95a5
#
DISCID=dc0e540e
DTITLE=VORONOFFF - Irony
DYEAR=2009
DGENRE=Blues-Rock
TTITLE0=Don't Put Me Down
TTITLE1=Mimi ( Love )
TTITLE2=We Were Meant To Be
TTITLE3=La Boheme
TTITLE4=Krimi
TTITLE5=So Many Places
TTITLE6=The Fire Inside
TTITLE7=Far Away
TTITLE8=Are You OK ?
TTITLE9=I Gotta Move On
TTITLE10=She's My Fate
TTITLE11=Center Of My World
TTITLE12=I Can Afford It
TTITLE13=Running
EXTD=
EXTT0=
EXTT1=
EXTT2=
EXTT3=
EXTT4=
EXTT5=
EXTT6=
EXTT7=
EXTT8=
EXTT9=
EXTT10=
EXTT11=
EXTT12=
EXTT13=
PLAYORDER=
